<svg aria-hidden="true" style="position: absolute; width: 0; height: 0; overflow: hidden;" version="1.1" xmlns="http://www.w3.org/2000/svg" xmlns:xlink="http://www.w3.org/1999/xlink">
<defs>
<!--
<symbol id="icon-" viewBox="0 0 17 17">

</symbol>

<svg class="icon" width="24" height="24">
    <use href="images/icons/sprite.svg#icon-doubleArrows"></use>
</svg>
-->

<!-- ===========================menu -->
<!-- ===========================menu end -->
<symbol id="icon-doubleArrows" viewBox="0 0 24 24">
<path d="M17.1501 13.8201L14.1101 16.86" stroke-width="1.5" stroke-miterlimit="10" stroke-linecap="round" stroke-linejoin="round"/>
<path d="M6.8501 13.8201H17.1501" stroke-width="1.5" stroke-miterlimit="10" stroke-linecap="round" stroke-linejoin="round"/>
<path d="M6.8501 10.1801L9.89011 7.14014" stroke-width="1.5" stroke-miterlimit="10" stroke-linecap="round" stroke-linejoin="round"/>
<path d="M17.1501 10.1802H6.8501" stroke-width="1.5" stroke-miterlimit="10" stroke-linecap="round" stroke-linejoin="round"/>
</symbol>






<!-- ===========================social -->
<symbol id="icon-fb" viewBox="0 0 20 20">
<path d="M5.27119 10.652H7.46351V19.6774C7.46351 19.8556 7.6079 20 7.78609 20H11.5033C11.6814 20 11.8258 19.8556 11.8258 19.6774V10.6945H14.3461C14.51 10.6945 14.6478 10.5715 14.6665 10.4088L15.0493 7.08606C15.0598 6.99465 15.0309 6.9031 14.9697 6.83452C14.9085 6.76587 14.8209 6.72658 14.7289 6.72658H11.826V4.64374C11.826 4.01587 12.164 3.69748 12.8309 3.69748C12.9259 3.69748 14.7289 3.69748 14.7289 3.69748C14.9071 3.69748 15.0515 3.55303 15.0515 3.3749V0.324968C15.0515 0.146774 14.9071 0.0023871 14.7289 0.0023871H12.1131C12.0947 0.00148387 12.0537 0 11.9933 0C11.5394 0 9.96183 0.0890967 8.71564 1.23555C7.33487 2.506 7.5268 4.02716 7.57267 4.2909V6.72652H5.27119C5.093 6.72652 4.94861 6.8709 4.94861 7.0491V10.3294C4.94861 10.5075 5.093 10.652 5.27119 10.652Z"/>
</symbol>
<symbol id="icon-twitter" viewBox="0 0 20 18">
<path d="M15.7512 0H18.818L12.1179 7.62462L20 18H13.8284L8.99458 11.7074L3.46359 18H0.394938L7.5613 9.84461L0 0H6.32828L10.6976 5.75169L15.7512 0ZM14.6748 16.1723H16.3742L5.4049 1.73169H3.58133L14.6748 16.1723Z"/>
</symbol>
<symbol id="icon-instagram" viewBox="0 0 20 20">
<path d="M10 0C7.28333 0 6.94417 0.0125 5.8775 0.06C4.8125 0.11 4.0875 0.2775 3.45 0.525C2.7925 0.78 2.23417 1.1225 1.67833 1.67833C1.1225 2.23417 0.779167 2.79167 0.525 3.45C0.2775 4.0875 0.109167 4.8125 0.06 5.8775C0.01 6.94417 0 7.28333 0 10C0 12.7167 0.0125 13.0558 0.06 14.1225C0.11 15.1867 0.2775 15.9125 0.525 16.55C0.78 17.2067 1.1225 17.7658 1.67833 18.3217C2.23417 18.8767 2.79167 19.2208 3.45 19.475C4.08833 19.7217 4.81333 19.8908 5.8775 19.94C6.94417 19.99 7.28333 20 10 20C12.7167 20 13.0558 19.9875 14.1225 19.94C15.1867 19.89 15.9125 19.7217 16.55 19.475C17.2067 19.22 17.7658 18.8767 18.3217 18.3217C18.8767 17.7658 19.2208 17.2092 19.475 16.55C19.7217 15.9125 19.8908 15.1867 19.94 14.1225C19.99 13.0558 20 12.7167 20 10C20 7.28333 19.9875 6.94417 19.94 5.8775C19.89 4.81333 19.7217 4.08667 19.475 3.45C19.22 2.7925 18.8767 2.23417 18.3217 1.67833C17.7658 1.1225 17.2092 0.779167 16.55 0.525C15.9125 0.2775 15.1867 0.109167 14.1225 0.06C13.0558 0.01 12.7167 0 10 0ZM10 1.8C12.6692 1.8 12.9875 1.81333 14.0417 1.85917C15.0167 1.905 15.5458 2.06667 15.8975 2.205C16.3658 2.38583 16.6975 2.6025 17.0492 2.95167C17.3983 3.30167 17.615 3.63417 17.7958 4.1025C17.9325 4.45417 18.0958 4.98333 18.14 5.95833C18.1875 7.01333 18.1983 7.33 18.1983 10C18.1983 12.67 18.1858 12.9875 18.1367 14.0417C18.0858 15.0167 17.9233 15.5458 17.7858 15.8975C17.5992 16.3658 17.3867 16.6975 17.0367 17.0492C16.6875 17.3983 16.35 17.615 15.8867 17.7958C15.5367 17.9325 14.9992 18.0958 14.0242 18.14C12.9625 18.1875 12.65 18.1983 9.975 18.1983C7.29917 18.1983 6.98667 18.1858 5.92583 18.1367C4.95 18.0858 4.4125 17.9233 4.0625 17.7858C3.58833 17.5992 3.2625 17.3867 2.91333 17.0367C2.5625 16.6875 2.33833 16.35 2.16333 15.8867C2.02583 15.5367 1.86417 14.9992 1.81333 14.0242C1.77583 12.9742 1.7625 12.65 1.7625 9.9875C1.7625 7.32417 1.77583 6.99917 1.81333 5.93667C1.86417 4.96167 2.02583 4.425 2.16333 4.075C2.33833 3.6 2.5625 3.275 2.91333 2.92417C3.2625 2.575 3.58833 2.35 4.0625 2.17583C4.4125 2.0375 4.93833 1.875 5.91333 1.825C6.97583 1.7875 7.28833 1.775 9.9625 1.775L10 1.8ZM10 4.865C7.1625 4.865 4.865 7.165 4.865 10C4.865 12.8375 7.165 15.135 10 15.135C12.8375 15.135 15.135 12.835 15.135 10C15.135 7.1625 12.835 4.865 10 4.865ZM10 13.3333C8.15833 13.3333 6.66667 11.8417 6.66667 10C6.66667 8.15833 8.15833 6.66667 10 6.66667C11.8417 6.66667 13.3333 8.15833 13.3333 10C13.3333 11.8417 11.8417 13.3333 10 13.3333ZM16.5383 4.6625C16.5383 5.325 16 5.8625 15.3383 5.8625C14.6758 5.8625 14.1383 5.32417 14.1383 4.6625C14.1383 4.00083 14.6767 3.46333 15.3383 3.46333C15.9992 3.4625 16.5383 4.00083 16.5383 4.6625Z"/>
</symbol>
<symbol id="icon-youtube" viewBox="0 0 20 20">
<path d="M19.5817 5.15493C19.4687 4.72933 19.2459 4.34088 18.9355 4.02849C18.6252 3.71609 18.2382 3.49072 17.8133 3.37494C16.2542 2.9541 10 2.9541 10 2.9541C10 2.9541 3.74583 2.9541 2.18583 3.37494C1.76117 3.49092 1.37441 3.71638 1.06423 4.02875C0.754051 4.34113 0.531326 4.72947 0.418333 5.15493C0 6.72493 0 9.99994 0 9.99994C0 9.99994 0 13.2749 0.418333 14.8449C0.531322 15.2705 0.754146 15.659 1.06449 15.9714C1.37484 16.2838 1.76181 16.5092 2.18667 16.6249C3.74583 17.0458 10 17.0458 10 17.0458C10 17.0458 16.2542 17.0458 17.8142 16.6249C18.2391 16.5092 18.6261 16.2839 18.9364 15.9715C19.2468 15.6591 19.4696 15.2706 19.5825 14.8449C20 13.2749 20 9.99994 20 9.99994C20 9.99994 20 6.72493 19.5817 5.15493ZM7.95417 12.9733V7.0266L13.1817 9.99994L7.95417 12.9733Z"/>
</symbol>
<!-- ===========================end-social -->
<!-- ===========================contact -->
<symbol id="icon-phone" viewBox="0 0 24 24">
<path d="M3.99225 16.1122L4.88144 15.6546L3.99225 16.1122ZM3.25656 20.3228L2.32144 19.9685L2.32144 19.9685L3.25656 20.3228ZM4.15021 17.9642L3.21508 17.6099H3.21508L4.15021 17.9642ZM16.2378 13.1098L15.5307 13.817L15.5323 13.8185L16.2378 13.1098ZM16.1505 13.0226L15.4424 13.7286L15.4434 13.7297L16.1505 13.0226ZM16.2892 13.161L15.5837 13.8697L15.5845 13.8705L16.2892 13.161ZM16.8139 13.8078L17.7062 13.3565L17.7062 13.3565L16.8139 13.8078ZM16.8139 15.3687L15.9215 14.9174H15.9215L16.8139 15.3687ZM16.2892 16.0155L15.5844 15.3061L15.5837 15.3068L16.2892 16.0155ZM16.2378 16.0667L15.5323 15.358L15.5304 15.3599L16.2378 16.0667ZM16.1262 16.1784L15.4188 15.4715L15.4181 15.4723L16.1262 16.1784ZM15.469 16.721L15.9587 17.5929L15.9587 17.5929L15.469 16.721ZM14.3963 17L14.3993 16H14.3993L14.3963 17ZM13.6426 16.8703L13.9166 15.9085L13.9163 15.9084L13.6426 16.8703ZM13.607 16.8601L13.8807 15.8983L13.8801 15.8981L13.607 16.8601ZM9.53506 14.4649L10.2422 13.7578H10.2422L9.53506 14.4649ZM7.13985 10.393L8.10186 10.1199L8.10168 10.1193L7.13985 10.393ZM7.12973 10.3574L8.09156 10.0837L8.09147 10.0834L7.12973 10.3574ZM7.00001 9.60372L8 9.60075V9.60074L7.00001 9.60372ZM7.27897 8.53102L6.40711 8.04125L6.40711 8.04126L7.27897 8.53102ZM7.82159 7.87382L8.52771 8.58192L8.52846 8.58117L7.82159 7.87382ZM7.98447 7.71079L8.69315 8.41632L8.69392 8.41555L7.98447 7.71079ZM7.93328 7.76221L8.64014 8.46956L8.64196 8.46774L7.93328 7.76221ZM8.63128 7.18614L8.17993 6.29379L8.17993 6.29379L8.63128 7.18614ZM10.1922 7.18614L9.7408 8.07849H9.74081L10.1922 7.18614ZM10.839 7.71079L10.1295 8.41555L10.1303 8.41632L10.839 7.71079ZM10.8902 7.76221L10.1815 8.46774L10.183 8.46932L10.8902 7.76221ZM10.9774 7.84949L10.2703 8.5566L10.2714 8.55764L10.9774 7.84949ZM11.0113 7.88329L10.3053 8.59144L10.3058 8.59194L11.0113 7.88329ZM11.3729 8.29812L12.2113 7.75303L12.2113 7.75302L11.3729 8.29812ZM11.1226 10.4858L10.4037 9.79064C10.1032 10.1014 10.0364 10.5701 10.2382 10.9525L11.1226 10.4858ZM11.3729 10.1832L10.5345 9.63809L10.5345 9.63809L11.3729 10.1832ZM13.8168 12.6271L13.2717 11.7887L13.2717 11.7887L13.8168 12.6271ZM13.5142 12.8774L13.0475 13.7618C13.4299 13.9636 13.8986 13.8968 14.2094 13.5963L13.5142 12.8774ZM15.7019 12.6271L16.247 11.7887L16.247 11.7887L15.7019 12.6271ZM16.1167 12.9887L15.4081 13.6942L15.4086 13.6947L16.1167 12.9887ZM12.1388 11.8612L12.8459 11.1541V11.1541L12.1388 11.8612ZM20 12C20 16.4183 16.4183 20 12 20V22C17.5228 22 22 17.5228 22 12H20ZM4 12C4 7.58172 7.58172 4 12 4V2C6.47715 2 2 6.47715 2 12H4ZM12 4C16.4183 4 20 7.58172 20 12H22C22 6.47715 17.5228 2 12 2V4ZM3.72413 22H12V20H3.72413V22ZM4.88144 15.6546C4.31832 14.5603 4 13.3188 4 12H2C2 13.6445 2.39771 15.1989 3.10306 16.5697L4.88144 15.6546ZM4.19169 20.6772L5.08534 18.3186L3.21508 17.6099L2.32144 19.9685L4.19169 20.6772ZM3.10306 16.5697C3.29872 16.95 3.32331 17.3243 3.21508 17.6099L5.08534 18.3186C5.43555 17.3942 5.27781 16.4249 4.88144 15.6546L3.10306 16.5697ZM3.72413 20C4.07396 20 4.31564 20.35 4.19169 20.6772L2.32144 19.9685C1.9496 20.9499 2.67465 22 3.72413 22V20ZM16.9449 12.4027L16.8576 12.3155L15.4434 13.7297L15.5307 13.817L16.9449 12.4027ZM16.9947 12.4524L16.9433 12.4012L15.5323 13.8185L15.5837 13.8697L16.9947 12.4524ZM17.7062 13.3565C17.4931 12.9351 17.1544 12.611 16.994 12.4516L15.5845 13.8705C15.6794 13.9648 15.7509 14.0365 15.8137 14.1095C15.8753 14.1812 15.9066 14.2297 15.9215 14.2592L17.7062 13.3565ZM17.7062 15.8201C18.0979 15.0456 18.0979 14.131 17.7062 13.3565L15.9215 14.2592C16.0262 14.4661 16.0262 14.7105 15.9215 14.9174L17.7062 15.8201ZM16.994 16.725C17.1544 16.5656 17.4931 16.2415 17.7062 15.8201L15.9215 14.9174C15.9066 14.9469 15.8753 14.9954 15.8137 15.067C15.7509 15.1401 15.6794 15.2118 15.5844 15.3061L16.994 16.725ZM16.9433 16.7754L16.9947 16.7242L15.5837 15.3068L15.5323 15.358L16.9433 16.7754ZM15.9587 17.5929C16.3608 17.367 16.6476 17.0717 16.8343 16.8845L15.4181 15.4723C15.2098 15.6812 15.1051 15.7785 14.9792 15.8492L15.9587 17.5929ZM14.3933 18C14.9149 18.0015 15.504 17.8483 15.9587 17.5929L14.9792 15.8492C14.8254 15.9356 14.5757 16.0005 14.3993 16L14.3933 18ZM13.3687 17.832C13.5967 17.897 13.9407 17.9986 14.3933 18L14.3993 16C14.2491 15.9995 14.1404 15.9723 13.9166 15.9085L13.3687 17.832ZM13.3334 17.822L13.369 17.8321L13.9163 15.9084L13.8807 15.8983L13.3334 17.822ZM8.82795 15.172C10.1242 16.4683 11.6823 17.3534 13.334 17.8221L13.8801 15.8981C12.5481 15.5201 11.2911 14.8068 10.2422 13.7578L8.82795 15.172ZM6.17785 10.666C6.64664 12.3177 7.53167 13.8758 8.82795 15.172L10.2422 13.7578C9.19321 12.7089 8.47992 11.4519 8.10186 10.1199L6.17785 10.666ZM6.1679 10.631L6.17803 10.6666L8.10168 10.1193L8.09156 10.0837L6.1679 10.631ZM6.00001 9.60669C6.00136 10.0593 6.10302 10.4033 6.16799 10.6313L8.09147 10.0834C8.02771 9.8596 8.00045 9.75094 8 9.60075L6.00001 9.60669ZM6.40711 8.04126C6.15166 8.496 5.99846 9.08512 6.00001 9.6067L8 9.60074C7.99948 9.42427 8.06439 9.17464 8.15083 9.02078L6.40711 8.04126ZM7.11548 7.16572C6.92832 7.35235 6.63297 7.63919 6.40711 8.04125L8.15083 9.02078C8.22153 8.89491 8.31882 8.79021 8.52771 8.58192L7.11548 7.16572ZM7.27579 7.00526L7.2246 7.05668L8.64196 8.46774L8.69315 8.41632L7.27579 7.00526ZM8.17993 6.29379C7.75852 6.50694 7.4344 6.8456 7.27503 7.00602L8.69392 8.41555C8.78823 8.32061 8.85995 8.2491 8.93295 8.18634C9.00461 8.12475 9.05309 8.09343 9.08263 8.07849L8.17993 6.29379ZM10.6435 6.29379C9.86902 5.90207 8.9544 5.90207 8.17993 6.29379L9.08262 8.07849C9.28954 7.97384 9.53389 7.97384 9.7408 8.07849L10.6435 6.29379ZM11.5484 7.00603C11.389 6.8456 11.0649 6.50694 10.6435 6.29379L9.74081 8.07849C9.77034 8.09343 9.81882 8.12475 9.89048 8.18634C9.96348 8.2491 10.0352 8.32061 10.1295 8.41555L11.5484 7.00603ZM11.5988 7.05668L11.5476 7.00526L10.1303 8.41632L10.1815 8.46774L11.5988 7.05668ZM11.6845 7.14238L11.5973 7.0551L10.183 8.46932L10.2703 8.5566L11.6845 7.14238ZM11.7174 7.17514L11.6835 7.14134L10.2714 8.55764L10.3053 8.59144L11.7174 7.17514ZM12.2113 7.75302C12.0425 7.49349 11.823 7.28026 11.7169 7.17463L10.3058 8.59194C10.3682 8.65409 10.4151 8.70113 10.4578 8.74821C10.4998 8.79463 10.5229 8.82529 10.5345 8.84321L12.2113 7.75302ZM11.8414 11.1809C11.9452 11.0736 12.088 10.9179 12.2113 10.7283L10.5345 9.63809C10.516 9.66665 10.478 9.71386 10.4037 9.79064L11.8414 11.1809ZM12.2113 10.7283C12.7994 9.82371 12.7994 8.65758 12.2113 7.75303L10.5345 8.84321C10.6916 9.08487 10.6916 9.39642 10.5345 9.63809L12.2113 10.7283ZM13.2717 11.7887C13.0821 11.912 12.9264 12.0548 12.8191 12.1586L14.2094 13.5963C14.2861 13.522 14.3333 13.4841 14.3619 13.4655L13.2717 11.7887ZM16.247 11.7887C15.3424 11.2006 14.1763 11.2006 13.2717 11.7887L14.3619 13.4655C14.6036 13.3084 14.9151 13.3084 15.1568 13.4655L16.247 11.7887ZM16.8254 12.2831C16.7197 12.177 16.5065 11.9575 16.247 11.7887L15.1568 13.4655C15.1747 13.4771 15.2054 13.5002 15.2518 13.5422C15.2989 13.5849 15.3459 13.6318 15.4081 13.6942L16.8254 12.2831ZM16.8587 12.3165L16.8249 12.2826L15.4086 13.6947L15.4424 13.7286L16.8587 12.3165ZM13.9809 11.993C13.5746 11.7786 13.1914 11.4997 12.8459 11.1541L11.4317 12.5683C11.9204 13.057 12.466 13.455 13.0475 13.7618L13.9809 11.993ZM12.8459 11.1541C12.5003 10.8086 12.2214 10.4254 12.007 10.0191L10.2382 10.9525C10.545 11.534 10.943 12.0796 11.4317 12.5683L12.8459 11.1541ZM16.8335 16.8853L16.9451 16.7736L15.5304 15.3599L15.4188 15.4715L16.8335 16.8853ZM7.22641 7.05486L7.11473 7.16647L8.52846 8.58117L8.64014 8.46956L7.22641 7.05486Z"/>
</symbol>
<symbol id="icon-mail" viewBox="0 0 24 24">
<path d="M21 8C21 7.44772 20.5523 7 20 7C19.4477 7 19 7.44772 19 8H21ZM5 8C5 7.44772 4.55228 7 4 7C3.44772 7 3 7.44772 3 8H5ZM5.09202 19.782L5.54601 18.891H5.54601L5.09202 19.782ZM4.21799 18.908L5.10899 18.454L5.10899 18.454L4.21799 18.908ZM19.782 18.908L18.891 18.454V18.454L19.782 18.908ZM18.908 19.782L18.454 18.891H18.454L18.908 19.782ZM10.8 2.9L11.4 3.7V3.7L10.8 2.9ZM4.10667 7.92L4.70667 8.72H4.70667L4.10667 7.92ZM4.10667 8.08L4.70667 7.28H4.70667L4.10667 8.08ZM10.8 13.1L10.2 13.9H10.2L10.8 13.1ZM13.2 13.1L13.8 13.9H13.8L13.2 13.1ZM19.8933 8.08L19.2933 7.28L19.8933 8.08ZM19.8933 7.92L20.4933 7.12L19.8933 7.92ZM13.2 2.9L12.6 3.7L13.2 2.9ZM19 8V16.8H21V8H19ZM16.8 19H7.2V21H16.8V19ZM5 16.8V8H3V16.8H5ZM7.2 19C6.62345 19 6.25117 18.9992 5.96784 18.9761C5.69617 18.9539 5.59545 18.9162 5.54601 18.891L4.63803 20.673C5.01641 20.8658 5.40963 20.9371 5.80497 20.9694C6.18864 21.0008 6.65645 21 7.2 21V19ZM3 16.8C3 17.3436 2.99922 17.8114 3.03057 18.195C3.06287 18.5904 3.13419 18.9836 3.32698 19.362L5.10899 18.454C5.0838 18.4045 5.04612 18.3038 5.02393 18.0322C5.00078 17.7488 5 17.3766 5 16.8H3ZM5.54601 18.891C5.35785 18.7951 5.20487 18.6422 5.10899 18.454L3.32698 19.362C3.6146 19.9265 4.07354 20.3854 4.63803 20.673L5.54601 18.891ZM19 16.8C19 17.3766 18.9992 17.7488 18.9761 18.0322C18.9539 18.3038 18.9162 18.4045 18.891 18.454L20.673 19.362C20.8658 18.9836 20.9371 18.5904 20.9694 18.195C21.0008 17.8114 21 17.3436 21 16.8H19ZM16.8 21C17.3436 21 17.8114 21.0008 18.195 20.9694C18.5904 20.9371 18.9836 20.8658 19.362 20.673L18.454 18.891C18.4045 18.9162 18.3038 18.9539 18.0322 18.9761C17.7488 18.9992 17.3766 19 16.8 19V21ZM18.891 18.454C18.7951 18.6422 18.6422 18.7951 18.454 18.891L19.362 20.673C19.9265 20.3854 20.3854 19.9265 20.673 19.362L18.891 18.454ZM10.2 2.1L3.50667 7.12L4.70667 8.72L11.4 3.7L10.2 2.1ZM3.50667 8.88L10.2 13.9L11.4 12.3L4.70667 7.28L3.50667 8.88ZM13.8 13.9L20.4933 8.88L19.2933 7.28L12.6 12.3L13.8 13.9ZM20.4933 7.12L13.8 2.1L12.6 3.7L19.2933 8.72L20.4933 7.12ZM20.4933 8.88C21.08 8.44 21.08 7.56 20.4933 7.12L19.2933 8.72C18.8133 8.36 18.8133 7.64 19.2933 7.28L20.4933 8.88ZM10.2 13.9C11.2667 14.7 12.7333 14.7 13.8 13.9L12.6 12.3C12.2444 12.5667 11.7556 12.5667 11.4 12.3L10.2 13.9ZM3.50667 7.12C2.92 7.56 2.92 8.44 3.50667 8.88L4.70667 7.28C5.18667 7.64 5.18667 8.36 4.70667 8.72L3.50667 7.12ZM11.4 3.7C11.7556 3.43333 12.2444 3.43333 12.6 3.7L13.8 2.1C12.7333 1.3 11.2667 1.3 10.2 2.1L11.4 3.7Z"/>
</symbol>
<!-- ===========================end contact -->
<symbol id="icon-arrows" viewBox="0 0 24 24">
<path d="M17.1501 13.8201L14.1101 16.86" stroke-width="1.5" stroke-miterlimit="10" stroke-linecap="round" stroke-linejoin="round"/>
<path d="M6.8501 13.8201H17.1501" stroke-width="1.5" stroke-miterlimit="10" stroke-linecap="round" stroke-linejoin="round"/>
<path d="M6.8501 10.18L9.89011 7.14001" stroke-width="1.5" stroke-miterlimit="10" stroke-linecap="round" stroke-linejoin="round"/>
<path d="M17.1501 10.1799H6.8501" stroke-width="1.5" stroke-miterlimit="10" stroke-linecap="round" stroke-linejoin="round"/>
</symbol>










<symbol id="icon-chevron-right" viewBox="0 0 20 20">
<path d="M9.163 4.516c0.418 0.408 4.502 4.695 4.502 4.695 0.223 0.219 0.335 0.504 0.335 0.789s-0.112 0.57-0.335 0.787c0 0-4.084 4.289-4.502 4.695-0.418 0.408-1.17 0.436-1.615 0-0.446-0.434-0.481-1.041 0-1.574l3.747-3.908-3.747-3.908c-0.481-0.533-0.446-1.141 0-1.576s1.197-0.409 1.615 0z"></path>
</symbol>




</defs>
</svg>
