<svg width="400" height="46" viewBox="0 0 400 46" fill="none" xmlns="http://www.w3.org/2000/svg">
<path d="M9.856 36.644C6.02267 36.644 3.048 35.0647 0.932 31.906V29.422C1.76 31.262 2.956 32.7033 4.52 33.746C6.11467 34.7887 8.016 35.31 10.224 35.31C11.7573 35.31 13.168 34.9727 14.456 34.298C15.7747 33.6233 16.8173 32.6727 17.584 31.446C18.3507 30.2193 18.734 28.8087 18.734 27.214C18.734 25.7727 18.4887 24.5307 17.998 23.488C17.5073 22.4453 16.6947 21.4487 15.56 20.498C14.4253 19.5167 12.7847 18.3667 10.638 17.048L9.166 16.128C7.81667 15.3 6.728 14.564 5.9 13.92C5.072 13.276 4.35133 12.5247 3.738 11.666C2.94067 10.47 2.542 9.09 2.542 7.526C2.542 5.44067 3.21667 3.81533 4.566 2.65C5.91533 1.48467 7.63267 0.901999 9.718 0.901999C12.5393 0.901999 14.778 1.94467 16.434 4.03V6.376C15.7287 5.088 14.7627 4.076 13.536 3.34C12.3093 2.604 10.96 2.236 9.488 2.236C7.95467 2.236 6.66667 2.71133 5.624 3.662C4.58133 4.61266 4.06 5.88533 4.06 7.48C4.06 9.044 4.53533 10.3933 5.486 11.528C6.46733 12.632 8.108 13.8433 10.408 15.162C13.2293 16.818 15.422 18.3207 16.986 19.67C18.09 20.682 18.8873 21.8013 19.378 23.028C19.8993 24.2547 20.16 25.6193 20.16 27.122C20.16 29.0233 19.7153 30.6947 18.826 32.136C17.9367 33.5773 16.71 34.6967 15.146 35.494C13.582 36.2607 11.8187 36.644 9.856 36.644ZM35.0618 35.264C36.6565 35.264 38.1745 34.85 39.6158 34.022C41.0572 33.194 42.2532 32.0593 43.2038 30.618V32.964C42.0692 34.2213 40.8272 35.1413 39.4778 35.724C38.1285 36.276 36.5952 36.552 34.8778 36.552C32.9765 36.552 31.1825 36.046 29.4958 35.034C27.8398 34.022 26.5058 32.6727 25.4938 30.986C24.5125 29.2993 24.0218 27.5053 24.0218 25.604C24.0218 23.5493 24.5125 21.7093 25.4938 20.084C26.4752 18.428 27.8092 17.14 29.4958 16.22C31.2132 15.3 33.1145 14.84 35.1998 14.84C38.3892 14.84 41.1032 16.0973 43.3418 18.612L28.8978 32.872C29.9098 33.7 30.8912 34.3133 31.8418 34.712C32.7925 35.08 33.8658 35.264 35.0618 35.264ZM25.4938 25.466C25.4938 28.0113 26.3372 30.1887 28.0238 31.998L41.5018 18.612C40.4898 17.7227 39.5085 17.094 38.5578 16.726C37.6072 16.3273 36.4725 16.128 35.1538 16.128C33.2832 16.128 31.6118 16.542 30.1398 17.37C28.6985 18.1673 27.5638 19.2713 26.7358 20.682C25.9078 22.0927 25.4938 23.6873 25.4938 25.466ZM47.9429 15.3H49.4149V20.084C50.0283 18.5813 50.9176 17.4007 52.0829 16.542C53.2789 15.6833 54.6283 15.254 56.1309 15.254C57.0816 15.254 58.0476 15.4533 59.0289 15.852V17.554C58.1396 16.8793 57.1429 16.542 56.0389 16.542C54.9349 16.542 53.8616 16.8793 52.8189 17.554C51.8069 18.2287 50.9789 19.1333 50.3349 20.268C49.7216 21.4027 49.4149 22.614 49.4149 23.902V36H47.9429V15.3ZM72.6593 45.568C70.9113 45.568 69.2093 45.1693 67.5533 44.372C65.8973 43.5747 64.6093 42.532 63.6893 41.244V39.128C64.4866 40.6 65.7286 41.8267 67.4153 42.808C69.1326 43.7893 70.8806 44.28 72.6593 44.28C75.6033 44.28 77.8726 43.406 79.4673 41.658C81.062 39.9407 81.8593 37.4107 81.8593 34.068V30.986C81.0313 32.642 79.728 33.9913 77.9493 35.034C76.2013 36.046 74.3613 36.552 72.4293 36.552C70.4666 36.552 68.642 36.0613 66.9553 35.08C65.2686 34.0987 63.9346 32.78 62.9533 31.124C61.972 29.4373 61.4813 27.628 61.4813 25.696C61.4813 23.764 61.972 21.97 62.9533 20.314C63.9346 18.6273 65.2686 17.2933 66.9553 16.312C68.642 15.3307 70.4666 14.84 72.4293 14.84C74.4533 14.84 76.324 15.346 78.0413 16.358C79.7586 17.37 81.0313 18.7347 81.8593 20.452V15.3H83.3313V34.068C83.3313 37.84 82.4113 40.692 80.5713 42.624C78.762 44.5867 76.1246 45.568 72.6593 45.568ZM72.5213 35.264C74.208 35.264 75.772 34.8347 77.2133 33.976C78.6546 33.0867 79.7893 31.9213 80.6173 30.48C81.476 29.008 81.9053 27.4133 81.9053 25.696C81.9053 23.9787 81.476 22.3993 80.6173 20.958C79.7893 19.486 78.6546 18.3207 77.2133 17.462C75.772 16.5727 74.208 16.128 72.5213 16.128C70.804 16.128 69.2093 16.5727 67.7373 17.462C66.296 18.3207 65.1306 19.486 64.2413 20.958C63.3826 22.3993 62.9533 23.9787 62.9533 25.696C62.9533 27.4133 63.3826 29.008 64.2413 30.48C65.1306 31.9213 66.296 33.0867 67.7373 33.976C69.2093 34.8347 70.804 35.264 72.5213 35.264ZM99.2103 35.264C100.805 35.264 102.323 34.85 103.764 34.022C105.206 33.194 106.402 32.0593 107.352 30.618V32.964C106.218 34.2213 104.976 35.1413 103.626 35.724C102.277 36.276 100.744 36.552 99.0263 36.552C97.1249 36.552 95.3309 36.046 93.6443 35.034C91.9883 34.022 90.6543 32.6727 89.6423 30.986C88.6609 29.2993 88.1703 27.5053 88.1703 25.604C88.1703 23.5493 88.6609 21.7093 89.6423 20.084C90.6236 18.428 91.9576 17.14 93.6443 16.22C95.3616 15.3 97.2629 14.84 99.3483 14.84C102.538 14.84 105.252 16.0973 107.49 18.612L93.0463 32.872C94.0583 33.7 95.0396 34.3133 95.9903 34.712C96.9409 35.08 98.0143 35.264 99.2103 35.264ZM89.6423 25.466C89.6423 28.0113 90.4856 30.1887 92.1723 31.998L105.65 18.612C104.638 17.7227 103.657 17.094 102.706 16.726C101.756 16.3273 100.621 16.128 99.3023 16.128C97.4316 16.128 95.7603 16.542 94.2883 17.37C92.8469 18.1673 91.7123 19.2713 90.8843 20.682C90.0563 22.0927 89.6423 23.6873 89.6423 25.466ZM120.647 45.154C117.213 45.154 114.499 43.9273 112.505 41.474V39.128C113.517 40.7227 114.667 41.9033 115.955 42.67C117.243 43.4673 118.746 43.866 120.463 43.866C122.211 43.866 123.699 43.498 124.925 42.762C126.183 42.026 127.133 41.014 127.777 39.726C128.421 38.4687 128.743 37.058 128.743 35.494V31.998C128.007 33.4393 126.888 34.5587 125.385 35.356C123.913 36.1227 122.303 36.506 120.555 36.506C118.807 36.506 117.259 36.1227 115.909 35.356C114.56 34.5893 113.502 33.516 112.735 32.136C111.999 30.756 111.631 29.1613 111.631 27.352V15.3H113.103V27.352C113.103 29.008 113.441 30.434 114.115 31.63C114.821 32.7953 115.741 33.6847 116.875 34.298C118.01 34.9113 119.252 35.218 120.601 35.218C122.073 35.218 123.438 34.8653 124.695 34.16C125.953 33.424 126.934 32.458 127.639 31.262C128.375 30.0353 128.743 28.732 128.743 27.352V15.3H130.215V35.356C130.215 37.196 129.832 38.852 129.065 40.324C128.329 41.8267 127.241 43.0073 125.799 43.866C124.358 44.7247 122.641 45.154 120.647 45.154ZM181.758 1.5V36H180.24V3.708L163.956 36.644L147.764 3.294V36H146.246V1.5H148.408L163.956 33.516L179.642 1.5H181.758ZM198.353 35.264C199.948 35.264 201.466 34.85 202.907 34.022C204.348 33.194 205.544 32.0593 206.495 30.618V32.964C205.36 34.2213 204.118 35.1413 202.769 35.724C201.42 36.276 199.886 36.552 198.169 36.552C196.268 36.552 194.474 36.046 192.787 35.034C191.131 34.022 189.797 32.6727 188.785 30.986C187.804 29.2993 187.313 27.5053 187.313 25.604C187.313 23.5493 187.804 21.7093 188.785 20.084C189.766 18.428 191.1 17.14 192.787 16.22C194.504 15.3 196.406 14.84 198.491 14.84C201.68 14.84 204.394 16.0973 206.633 18.612L192.189 32.872C193.201 33.7 194.182 34.3133 195.133 34.712C196.084 35.08 197.157 35.264 198.353 35.264ZM188.785 25.466C188.785 28.0113 189.628 30.1887 191.315 31.998L204.793 18.612C203.781 17.7227 202.8 17.094 201.849 16.726C200.898 16.3273 199.764 16.128 198.445 16.128C196.574 16.128 194.903 16.542 193.431 17.37C191.99 18.1673 190.855 19.2713 190.027 20.682C189.199 22.0927 188.785 23.6873 188.785 25.466ZM219.1 36.414C217.659 36.414 216.34 36.092 215.144 35.448C213.948 34.7733 212.997 33.838 212.292 32.642C211.587 31.446 211.234 30.112 211.234 28.64V1.5H212.706V28.64C212.706 29.8667 212.982 30.9707 213.534 31.952C214.117 32.9333 214.899 33.7153 215.88 34.298C216.861 34.85 217.935 35.126 219.1 35.126V36.414ZM223.857 15.3H225.329V19.9C226.004 18.3667 227.154 17.14 228.779 16.22C230.404 15.2693 232.198 14.794 234.161 14.794C236.706 14.794 238.715 15.6067 240.187 17.232C241.69 18.8267 242.441 21.0653 242.441 23.948V36H240.969V23.948C240.969 21.464 240.356 19.532 239.129 18.152C237.933 16.772 236.246 16.082 234.069 16.082C232.474 16.082 231.002 16.45 229.653 17.186C228.334 17.8913 227.276 18.8727 226.479 20.13C225.712 21.3873 225.329 22.8133 225.329 24.408V36H223.857V15.3ZM250.044 10.562C249.614 10.562 249.231 10.4087 248.894 10.102C248.587 9.79533 248.434 9.412 248.434 8.952C248.434 8.52266 248.587 8.15466 248.894 7.848C249.231 7.54133 249.614 7.388 250.044 7.388C250.473 7.388 250.841 7.54133 251.148 7.848C251.485 8.15466 251.654 8.52266 251.654 8.952C251.654 9.412 251.485 9.79533 251.148 10.102C250.841 10.4087 250.473 10.562 250.044 10.562ZM249.308 15.3H250.78V36H249.308V15.3ZM265.044 36.276C262.775 36.276 260.889 35.586 259.386 34.206C257.914 32.826 257.178 30.9247 257.178 28.502V6.974H258.65V15.3H264.998V16.588H258.65V28.502C258.65 30.526 259.248 32.1207 260.444 33.286C261.671 34.4207 263.204 34.988 265.044 34.988V36.276ZM278.666 36.598C276.672 36.598 274.832 36.1227 273.146 35.172C271.49 34.2213 270.171 32.918 269.19 31.262C268.208 29.606 267.718 27.7353 267.718 25.65C267.718 23.718 268.208 21.9393 269.19 20.314C270.171 18.658 271.505 17.3393 273.192 16.358C274.909 15.3767 276.795 14.886 278.85 14.886C280.567 14.886 282.039 15.162 283.266 15.714C284.492 16.266 285.688 17.1247 286.854 18.29V20.774C285.842 19.2713 284.707 18.1367 283.45 17.37C282.223 16.5727 280.69 16.174 278.85 16.174C277.163 16.174 275.568 16.6187 274.066 17.508C272.594 18.3667 271.413 19.532 270.524 21.004C269.634 22.476 269.19 24.0553 269.19 25.742C269.19 27.582 269.619 29.238 270.478 30.71C271.336 32.1513 272.486 33.286 273.928 34.114C275.4 34.9113 276.979 35.31 278.666 35.31C282.1 35.31 284.83 33.7613 286.854 30.664V33.148C285.75 34.3133 284.523 35.1873 283.174 35.77C281.855 36.322 280.352 36.598 278.666 36.598ZM290.925 1.5H292.397V19.578C293.041 18.198 294.13 17.0633 295.663 16.174C297.227 15.254 298.807 14.794 300.401 14.794C303.315 14.794 305.553 15.5913 307.117 17.186C308.712 18.7807 309.509 21.0347 309.509 23.948V36H308.037V23.948C308.037 21.4333 307.363 19.5013 306.013 18.152C304.695 16.772 302.824 16.082 300.401 16.082C298.929 16.082 297.58 16.4347 296.353 17.14C295.127 17.8147 294.161 18.7653 293.455 19.992C292.75 21.188 292.397 22.5067 292.397 23.948V36H290.925V1.5ZM325.392 35.264C326.987 35.264 328.505 34.85 329.946 34.022C331.387 33.194 332.583 32.0593 333.534 30.618V32.964C332.399 34.2213 331.157 35.1413 329.808 35.724C328.459 36.276 326.925 36.552 325.208 36.552C323.307 36.552 321.513 36.046 319.826 35.034C318.17 34.022 316.836 32.6727 315.824 30.986C314.843 29.2993 314.352 27.5053 314.352 25.604C314.352 23.5493 314.843 21.7093 315.824 20.084C316.805 18.428 318.139 17.14 319.826 16.22C321.543 15.3 323.445 14.84 325.53 14.84C328.719 14.84 331.433 16.0973 333.672 18.612L319.228 32.872C320.24 33.7 321.221 34.3133 322.172 34.712C323.123 35.08 324.196 35.264 325.392 35.264ZM315.824 25.466C315.824 28.0113 316.667 30.1887 318.354 31.998L331.832 18.612C330.82 17.7227 329.839 17.094 328.888 16.726C327.937 16.3273 326.803 16.128 325.484 16.128C323.613 16.128 321.942 16.542 320.47 17.37C319.029 18.1673 317.894 19.2713 317.066 20.682C316.238 22.0927 315.824 23.6873 315.824 25.466ZM338.273 15.3H339.745V19.9C340.42 18.3667 341.57 17.14 343.195 16.22C344.82 15.2693 346.614 14.794 348.577 14.794C351.122 14.794 353.131 15.6067 354.603 17.232C356.106 18.8267 356.857 21.0653 356.857 23.948V36H355.385V23.948C355.385 21.464 354.772 19.532 353.545 18.152C352.349 16.772 350.662 16.082 348.485 16.082C346.89 16.082 345.418 16.45 344.069 17.186C342.75 17.8913 341.692 18.8727 340.895 20.13C340.128 21.3873 339.745 22.8133 339.745 24.408V36H338.273V15.3ZM362.666 1.592H364.138V22.476L372.326 15.3H374.212L364.736 23.58L376.604 36H374.626L364.138 24.96V36H362.666V1.592ZM388.502 36.736C386.416 36.736 384.53 36.23 382.844 35.218C381.157 34.1753 379.838 32.8107 378.888 31.124C377.937 29.4067 377.462 27.5513 377.462 25.558C377.462 23.5953 377.937 21.7707 378.888 20.084C379.869 18.3973 381.188 17.0633 382.844 16.082C384.53 15.07 386.401 14.564 388.456 14.564C390.48 14.564 392.32 15.07 393.976 16.082C395.662 17.0633 396.981 18.3973 397.932 20.084C398.882 21.7707 399.358 23.5953 399.358 25.558C399.358 27.6127 398.898 29.4987 397.978 31.216C397.058 32.9027 395.77 34.252 394.114 35.264C392.488 36.2453 390.618 36.736 388.502 36.736ZM388.502 35.448C390.25 35.448 391.844 35.0033 393.286 34.114C394.727 33.2247 395.846 32.044 396.644 30.572C397.472 29.0693 397.886 27.4287 397.886 25.65C397.886 23.902 397.472 22.2767 396.644 20.774C395.816 19.2713 394.681 18.0753 393.24 17.186C391.798 16.2967 390.204 15.852 388.456 15.852C386.708 15.852 385.098 16.312 383.626 17.232C382.184 18.1213 381.034 19.3173 380.176 20.82C379.348 22.3227 378.934 23.948 378.934 25.696C378.934 27.444 379.348 29.0693 380.176 30.572C381.034 32.044 382.184 33.2247 383.626 34.114C385.098 35.0033 386.723 35.448 388.502 35.448Z" fill="#F6F7F8"/>
</svg>
