<svg width="88" height="44" viewBox="0 0 88 44" fill="none" xmlns="http://www.w3.org/2000/svg">
<g clip-path="url(#clip0_18_134)">
<path d="M8.83679 0H79.9115V1.65414V5.34049H78.2487V1.65414H10.4996V5.34049H8.83679V1.65414V0Z" fill="black"/>
<path d="M79.9115 44H8.83679V42.3458V38.6595H10.4996V42.3458H78.2487V38.6595H79.9115V42.3458V44Z" fill="black"/>
<path d="M0 13.2331H0.926442L9.69201 27.1042V29.3964H9.26442L1.66284 17.2503V30.6724H0V13.2331Z" fill="black"/>
<path d="M19.384 13.2331H18.4576L9.69202 27.1042V29.3964H10.0959L17.7212 17.2503V30.6724H19.384V13.2331Z" fill="black"/>
<path d="M63.4732 18.2428C63.4732 21.0095 61.2183 23.2524 58.4371 23.2524C56.1842 23.2524 53.8287 23.2524 53.8287 23.2524V21.5983H58.1521C58.1521 21.5983 61.6915 21.5983 61.6915 18.0773C61.6915 14.8872 58.1521 14.8872 58.1521 14.8872H53.8215C53.8253 13.928 53.8287 13.2331 53.8287 13.2331C53.8287 13.2331 57.2627 13.2331 58.4371 13.2331C61.2183 13.2331 63.4732 15.476 63.4732 18.2428Z" fill="black"/>
<path d="M50.5029 13.2331H53.8286V14.8872H50.5029V13.2331Z" fill="black"/>
<path d="M50.5029 21.5983H53.8286V23.2524H50.5029V21.5983Z" fill="black"/>
<path d="M50.5029 14.8872H52.1658V30.6724H50.5029V14.8872Z" fill="black"/>
<path d="M70.8846 13.2331H72.5475V30.6724H70.8846V13.2331Z" fill="black"/>
<path d="M72.5475 21.0311H85.5652V22.6853H72.5475V21.0311Z" fill="black"/>
<path d="M85.5652 13.2331H87.228V30.6724H85.5652V13.2331Z" fill="black"/>
<path d="M33.6913 23.83L27.1757 13.8002H29.3475L34.7229 22.1789L39.9897 13.8002H42.1888L35.646 23.83V31.0505H33.6913V23.83Z" fill="black"/>
</g>
<defs>
<clipPath id="clip0_18_134">
<rect width="87.2281" height="44" fill="white"/>
</clipPath>
</defs>
</svg>
